<mxfile host="65bd71144e">
    <diagram id="OhrXGnzLzyW5_BQoMy-W" name="Page-1">
        <mxGraphModel dx="1144" dy="519" grid="1" gridSize="10" guides="1" tooltips="1" connect="1" arrows="1" fold="1" page="1" pageScale="1" pageWidth="850" pageHeight="1100" math="0" shadow="0">
            <root>
                <mxCell id="0"/>
                <mxCell id="1" parent="0"/>
                <mxCell id="10" value="" style="ellipse;html=1;shape=startState;strokeColor=#3399FF;" vertex="1" parent="1">
                    <mxGeometry x="415" y="10" width="30" height="30" as="geometry"/>
                </mxCell>
                <mxCell id="11" value="" style="edgeStyle=orthogonalEdgeStyle;html=1;verticalAlign=bottom;endArrow=open;endSize=8;strokeColor=#006EAF;fillColor=#1ba1e2;" edge="1" parent="1" source="10">
                    <mxGeometry relative="1" as="geometry">
                        <mxPoint x="430" y="80" as="targetPoint"/>
                    </mxGeometry>
                </mxCell>
                <mxCell id="12" value="Ask to LogIn or Create New&amp;nbsp; Admin Account" style="rounded=1;whiteSpace=wrap;html=1;strokeColor=#3399FF;" vertex="1" parent="1">
                    <mxGeometry x="370" y="80" width="120" height="60" as="geometry"/>
                </mxCell>
                <mxCell id="13" value="Enter User Info for New Account/Ask Admin to help create account" style="rounded=1;whiteSpace=wrap;html=1;strokeColor=#3399FF;" vertex="1" parent="1">
                    <mxGeometry x="170" y="150" width="150" height="60" as="geometry"/>
                </mxCell>
                <mxCell id="14" value="Reject Account" style="rounded=1;whiteSpace=wrap;html=1;strokeColor=#3399FF;" vertex="1" parent="1">
                    <mxGeometry x="260" y="320" width="90" height="50" as="geometry"/>
                </mxCell>
                <mxCell id="15" value="" style="rhombus;strokeColor=#3399FF;" vertex="1" parent="1">
                    <mxGeometry x="220" y="240" width="30" height="30" as="geometry"/>
                </mxCell>
                <mxCell id="16" value="" style="endArrow=open;startArrow=none;endFill=0;startFill=0;endSize=8;html=1;verticalAlign=bottom;labelBackgroundColor=none;strokeWidth=1;entryX=0.5;entryY=0;entryDx=0;entryDy=0;fillColor=#1ba1e2;strokeColor=#006EAF;exitX=0.433;exitY=1;exitDx=0;exitDy=0;exitPerimeter=0;" edge="1" parent="1" source="13" target="15">
                    <mxGeometry width="160" relative="1" as="geometry">
                        <mxPoint x="475" y="130" as="sourcePoint"/>
                        <mxPoint x="475" y="175" as="targetPoint"/>
                    </mxGeometry>
                </mxCell>
                <mxCell id="17" value="" style="endArrow=open;startArrow=none;endFill=0;startFill=0;endSize=8;html=1;verticalAlign=bottom;labelBackgroundColor=none;strokeWidth=1;fillColor=#1ba1e2;strokeColor=#006EAF;exitX=1;exitY=0.5;exitDx=0;exitDy=0;entryX=0.5;entryY=0;entryDx=0;entryDy=0;" edge="1" parent="1" source="15" target="14">
                    <mxGeometry width="160" relative="1" as="geometry">
                        <mxPoint x="250" y="280" as="sourcePoint"/>
                        <mxPoint x="290" y="290" as="targetPoint"/>
                        <Array as="points">
                            <mxPoint x="305" y="255"/>
                        </Array>
                    </mxGeometry>
                </mxCell>
                <mxCell id="18" value="Create Account" style="rounded=1;whiteSpace=wrap;html=1;strokeColor=#3399FF;" vertex="1" parent="1">
                    <mxGeometry x="120" y="320" width="90" height="50" as="geometry"/>
                </mxCell>
                <mxCell id="19" value="" style="endArrow=open;startArrow=none;endFill=0;startFill=0;endSize=8;html=1;verticalAlign=bottom;labelBackgroundColor=none;strokeWidth=1;fillColor=#1ba1e2;strokeColor=#006EAF;exitX=0;exitY=0.5;exitDx=0;exitDy=0;entryX=0.5;entryY=0;entryDx=0;entryDy=0;" edge="1" parent="1" source="15" target="18">
                    <mxGeometry width="160" relative="1" as="geometry">
                        <mxPoint x="260" y="265" as="sourcePoint"/>
                        <mxPoint x="165" y="270" as="targetPoint"/>
                        <Array as="points">
                            <mxPoint x="165" y="255"/>
                        </Array>
                    </mxGeometry>
                </mxCell>
                <mxCell id="20" value="" style="rhombus;strokeColor=#3399FF;" vertex="1" parent="1">
                    <mxGeometry x="220" y="410" width="30" height="30" as="geometry"/>
                </mxCell>
                <mxCell id="21" value="" style="endArrow=open;startArrow=none;endFill=0;startFill=0;endSize=8;html=1;verticalAlign=bottom;labelBackgroundColor=none;strokeWidth=1;fillColor=#1ba1e2;strokeColor=#006EAF;exitX=0.5;exitY=1;exitDx=0;exitDy=0;entryX=0;entryY=0.5;entryDx=0;entryDy=0;" edge="1" parent="1" source="18" target="20">
                    <mxGeometry width="160" relative="1" as="geometry">
                        <mxPoint x="230" y="265" as="sourcePoint"/>
                        <mxPoint x="175" y="310" as="targetPoint"/>
                        <Array as="points">
                            <mxPoint x="165" y="395"/>
                            <mxPoint x="165" y="425"/>
                        </Array>
                    </mxGeometry>
                </mxCell>
                <mxCell id="22" value="" style="endArrow=open;startArrow=none;endFill=0;startFill=0;endSize=8;html=1;verticalAlign=bottom;labelBackgroundColor=none;strokeWidth=1;fillColor=#1ba1e2;strokeColor=#006EAF;exitX=0.5;exitY=1;exitDx=0;exitDy=0;entryX=1;entryY=0.5;entryDx=0;entryDy=0;" edge="1" parent="1" target="20">
                    <mxGeometry width="160" relative="1" as="geometry">
                        <mxPoint x="310" y="390" as="sourcePoint"/>
                        <mxPoint x="365" y="425" as="targetPoint"/>
                        <Array as="points">
                            <mxPoint x="310" y="370"/>
                            <mxPoint x="310" y="395"/>
                            <mxPoint x="310" y="425"/>
                        </Array>
                    </mxGeometry>
                </mxCell>
                <mxCell id="25" value="" style="endArrow=open;startArrow=none;endFill=0;startFill=0;endSize=8;html=1;verticalAlign=bottom;labelBackgroundColor=none;strokeWidth=1;fillColor=#1ba1e2;strokeColor=#006EAF;exitX=0.5;exitY=1;exitDx=0;exitDy=0;entryX=0;entryY=0.5;entryDx=0;entryDy=0;" edge="1" parent="1" source="20" target="12">
                    <mxGeometry width="160" relative="1" as="geometry">
                        <mxPoint x="120" y="345" as="sourcePoint"/>
                        <mxPoint x="65" y="410" as="targetPoint"/>
                        <Array as="points">
                            <mxPoint x="235" y="480"/>
                            <mxPoint x="60" y="480"/>
                            <mxPoint x="60" y="110"/>
                        </Array>
                    </mxGeometry>
                </mxCell>
                <mxCell id="26" value="" style="rhombus;strokeColor=#3399FF;" vertex="1" parent="1">
                    <mxGeometry x="415" y="165" width="30" height="30" as="geometry"/>
                </mxCell>
                <mxCell id="27" value="" style="endArrow=open;startArrow=none;endFill=0;startFill=0;endSize=8;html=1;verticalAlign=bottom;labelBackgroundColor=none;strokeWidth=1;fillColor=#1ba1e2;strokeColor=#006EAF;exitX=0.5;exitY=1;exitDx=0;exitDy=0;" edge="1" parent="1" source="12" target="26">
                    <mxGeometry width="160" relative="1" as="geometry">
                        <mxPoint x="244.95000000000005" y="220" as="sourcePoint"/>
                        <mxPoint x="245" y="250" as="targetPoint"/>
                        <Array as="points"/>
                    </mxGeometry>
                </mxCell>
                <mxCell id="28" value="" style="endArrow=open;startArrow=none;endFill=0;startFill=0;endSize=8;html=1;verticalAlign=bottom;labelBackgroundColor=none;strokeWidth=1;fillColor=#1ba1e2;strokeColor=#006EAF;exitX=0;exitY=0.5;exitDx=0;exitDy=0;entryX=1;entryY=0.5;entryDx=0;entryDy=0;" edge="1" parent="1" target="13">
                    <mxGeometry width="160" relative="1" as="geometry">
                        <mxPoint x="415" y="180" as="sourcePoint"/>
                        <mxPoint x="360" y="245" as="targetPoint"/>
                        <Array as="points">
                            <mxPoint x="360" y="180"/>
                        </Array>
                    </mxGeometry>
                </mxCell>
            </root>
        </mxGraphModel>
    </diagram>
</mxfile>